# xmcd CD database file
#
# Track frame offsets:
#	150
#	24872
#	53335
#	72312
#	101880
#	123915
#	146740
#	169282
#	194535
#	213885
#	237650
#	259557
#	286147
#	310752
#
# Disc length: 4435 seconds
#
# Revision: 12
# Processed by: cddbd v1.5.2PL0 Copyright (c) Steve Scherf et al.
# Submitted via: CDex 1.70beta2
#
DISCID=c811510e
DTITLE=Various Artist - Smooth Jazz Cafe 1
DYEAR=1999
DGENRE=Jazz
TTITLE0=Don Grusin - Outback Oasis
TTITLE1=Nicky Holland - Prelude Ladykiller
TTITLE2=Pete Belasco - Without Within
TTITLE3=String Connection - Bizzaramente
TTITLE4=Basia - Simple Pleasures
TTITLE5=Michael Franks - Barefoot On The Beach
TTITLE6=John Scofield - Tulle
TTITLE7=Bemibek - Powrotna Bossa Nova
TTITLE8=Mark Ledford -  Way I Feel
TTITLE9=Eric Marienthal - Easy Street
TTITLE10=Laima - What's Forever
TTITLE11=Russ Freeman and The Rippingtons - Taos
TTITLE12=Vanessa Williams - Sister Moon
TTITLE13=Acoustic Alchemy - Lazeez
EXTD=YEAR: 1999
EXTT0=
EXTT1=
EXTT2=
EXTT3=
EXTT4=
EXTT5=
EXTT6=
EXTT7=
EXTT8=
EXTT9=
EXTT10=
EXTT11=
EXTT12=
EXTT13=
PLAYORDER=
